<mxfile host="app.diagrams.net" agent="Mozilla/5.0 (Windows NT 10.0; Win64; x64) AppleWebKit/537.36 (KHTML, like Gecko) Chrome/131.0.0.0 Safari/537.36" version="26.0.3">
  <diagram name="Page-1" id="FletzxpNU2K9Tte4MwrH">
    <mxGraphModel dx="3149" dy="1913" grid="1" gridSize="10" guides="1" tooltips="1" connect="1" arrows="1" fold="1" page="1" pageScale="1" pageWidth="1100" pageHeight="850" math="0" shadow="1">
      <root>
        <mxCell id="0" />
        <mxCell id="1" parent="0" />
        <mxCell id="Zp9bopaUCP8zhnC8v-5o-43" value="" style="rounded=1;whiteSpace=wrap;html=1;fillColor=#dae8fc;strokeColor=#6c8ebf;" parent="1" vertex="1">
          <mxGeometry x="-375" y="-60" width="1760" height="633.75" as="geometry" />
        </mxCell>
        <mxCell id="Zp9bopaUCP8zhnC8v-5o-44" value="" style="rounded=1;whiteSpace=wrap;html=1;fillColor=#d5e8d4;strokeColor=#82b366;" parent="1" vertex="1">
          <mxGeometry x="-210" width="1430" height="180" as="geometry" />
        </mxCell>
        <mxCell id="Zp9bopaUCP8zhnC8v-5o-45" value="" style="rounded=1;whiteSpace=wrap;html=1;fillColor=#d5e8d4;strokeColor=#82b366;labelBackgroundColor=none;" parent="1" vertex="1">
          <mxGeometry x="-210" y="335" width="1430" height="180" as="geometry" />
        </mxCell>
        <mxCell id="Zp9bopaUCP8zhnC8v-5o-13" style="edgeStyle=orthogonalEdgeStyle;rounded=0;orthogonalLoop=1;jettySize=auto;html=1;entryX=0;entryY=0.5;entryDx=0;entryDy=0;flowAnimation=1;" parent="1" source="Zp9bopaUCP8zhnC8v-5o-1" target="Zp9bopaUCP8zhnC8v-5o-3" edge="1">
          <mxGeometry relative="1" as="geometry" />
        </mxCell>
        <mxCell id="Zp9bopaUCP8zhnC8v-5o-1" value="" style="shape=image;verticalLabelPosition=bottom;labelBackgroundColor=default;verticalAlign=top;aspect=fixed;imageAspect=0;image=https://logolook.net/wp-content/uploads/2022/12/GitHub-Logo.png;" parent="1" vertex="1">
          <mxGeometry x="-320" y="242.5" width="120" height="67.5" as="geometry" />
        </mxCell>
        <mxCell id="Zp9bopaUCP8zhnC8v-5o-22" style="edgeStyle=orthogonalEdgeStyle;rounded=0;orthogonalLoop=1;jettySize=auto;html=1;entryX=0;entryY=0.5;entryDx=0;entryDy=0;flowAnimation=1;dashed=1;" parent="1" source="Zp9bopaUCP8zhnC8v-5o-3" target="Zp9bopaUCP8zhnC8v-5o-5" edge="1">
          <mxGeometry relative="1" as="geometry" />
        </mxCell>
        <mxCell id="Zp9bopaUCP8zhnC8v-5o-3" value="" style="shape=image;verticalLabelPosition=bottom;labelBackgroundColor=default;verticalAlign=top;aspect=fixed;imageAspect=0;image=https://upload.wikimedia.org/wikipedia/commons/thumb/e/e9/Jenkins_logo.svg/1483px-Jenkins_logo.svg.png;" parent="1" vertex="1">
          <mxGeometry x="-100" y="32.329999999999984" width="60" height="82.85" as="geometry" />
        </mxCell>
        <mxCell id="Zp9bopaUCP8zhnC8v-5o-20" style="edgeStyle=orthogonalEdgeStyle;rounded=0;orthogonalLoop=1;jettySize=auto;html=1;entryX=0;entryY=0.5;entryDx=0;entryDy=0;flowAnimation=1;dashed=1;" parent="1" source="Zp9bopaUCP8zhnC8v-5o-4" target="kJF5AU2SEee2FHh_53xt-1" edge="1">
          <mxGeometry relative="1" as="geometry">
            <mxPoint x="870" y="73.75" as="targetPoint" />
          </mxGeometry>
        </mxCell>
        <mxCell id="Zp9bopaUCP8zhnC8v-5o-4" value="" style="shape=image;verticalLabelPosition=bottom;labelBackgroundColor=default;verticalAlign=top;aspect=fixed;imageAspect=0;image=https://static-00.iconduck.com/assets.00/trivy-icon-1248x2048-jvb9x51r.png;" parent="1" vertex="1">
          <mxGeometry x="760" y="31" width="52.08" height="85.5" as="geometry" />
        </mxCell>
        <mxCell id="Zp9bopaUCP8zhnC8v-5o-21" style="edgeStyle=orthogonalEdgeStyle;rounded=0;orthogonalLoop=1;jettySize=auto;html=1;entryX=0;entryY=0.5;entryDx=0;entryDy=0;flowAnimation=1;dashed=1;" parent="1" source="Zp9bopaUCP8zhnC8v-5o-5" target="Zp9bopaUCP8zhnC8v-5o-7" edge="1">
          <mxGeometry relative="1" as="geometry" />
        </mxCell>
        <mxCell id="Zp9bopaUCP8zhnC8v-5o-5" value="" style="shape=image;verticalLabelPosition=bottom;labelBackgroundColor=default;verticalAlign=top;aspect=fixed;imageAspect=0;image=https://static-00.iconduck.com/assets.00/sonarqube-icon-2048x499-b6mw67zs.png;" parent="1" vertex="1">
          <mxGeometry y="52.76" width="172.6" height="42" as="geometry" />
        </mxCell>
        <mxCell id="yrw4BJJYyJAJMMiqZRWE-4" value="" style="edgeStyle=orthogonalEdgeStyle;rounded=0;orthogonalLoop=1;jettySize=auto;html=1;flowAnimation=1;dashed=1;" parent="1" source="Zp9bopaUCP8zhnC8v-5o-7" target="yrw4BJJYyJAJMMiqZRWE-3" edge="1">
          <mxGeometry relative="1" as="geometry" />
        </mxCell>
        <mxCell id="Zp9bopaUCP8zhnC8v-5o-7" value="" style="shape=image;verticalLabelPosition=bottom;labelBackgroundColor=default;verticalAlign=top;aspect=fixed;imageAspect=0;image=https://blogger.googleusercontent.com/img/b/R29vZ2xl/AVvXsEglo6MalGbIc81QBbz1jqOU8B0085n2UVJCaH9SfhIfxA0MYt1dEFk2-zwiD-qE16LkgxrJgrbgfuRdoyn1PJho_kqKA_0VlMfW9-waWAuhLT9El1w9XQpbyBj_-3MCTMml9gdUmU9k4Ek/s1600/DependencyCheck.png;" parent="1" vertex="1">
          <mxGeometry x="230" y="48.75" width="158.02" height="50" as="geometry" />
        </mxCell>
        <mxCell id="Zp9bopaUCP8zhnC8v-5o-12" value="" style="shape=image;verticalLabelPosition=bottom;labelBackgroundColor=default;verticalAlign=top;aspect=fixed;imageAspect=0;image=https://static-00.iconduck.com/assets.00/terraform-icon-1803x2048-hodrzd3t.png;" parent="1" vertex="1">
          <mxGeometry x="-340" y="60" width="52.8" height="60" as="geometry" />
        </mxCell>
        <mxCell id="Zp9bopaUCP8zhnC8v-5o-18" style="edgeStyle=orthogonalEdgeStyle;rounded=0;orthogonalLoop=1;jettySize=auto;html=1;entryX=0;entryY=0.5;entryDx=0;entryDy=0;flowAnimation=1;dashed=1;" parent="1" source="Zp9bopaUCP8zhnC8v-5o-15" target="Zp9bopaUCP8zhnC8v-5o-4" edge="1">
          <mxGeometry relative="1" as="geometry">
            <mxPoint x="680" y="73.75" as="targetPoint" />
          </mxGeometry>
        </mxCell>
        <mxCell id="Zp9bopaUCP8zhnC8v-5o-15" value="" style="shape=image;verticalLabelPosition=bottom;labelBackgroundColor=default;verticalAlign=top;aspect=fixed;imageAspect=0;image=https://logos-world.net/wp-content/uploads/2021/02/Docker-Logo.png;" parent="1" vertex="1">
          <mxGeometry x="582.6" y="38.75" width="124.44" height="70" as="geometry" />
        </mxCell>
        <mxCell id="Zp9bopaUCP8zhnC8v-5o-17" value="Docker Image Build" style="text;html=1;align=center;verticalAlign=middle;whiteSpace=wrap;rounded=0;fontSize=20;" parent="1" vertex="1">
          <mxGeometry x="614.82" y="115.18" width="60" height="30" as="geometry" />
        </mxCell>
        <mxCell id="Zp9bopaUCP8zhnC8v-5o-34" style="edgeStyle=orthogonalEdgeStyle;rounded=0;orthogonalLoop=1;jettySize=auto;html=1;entryX=0.5;entryY=0;entryDx=0;entryDy=0;flowAnimation=1;exitX=0.5;exitY=1;exitDx=0;exitDy=0;" parent="1" source="Zp9bopaUCP8zhnC8v-5o-36" target="Zp9bopaUCP8zhnC8v-5o-25" edge="1">
          <mxGeometry relative="1" as="geometry">
            <mxPoint x="-37.79500000000053" y="390" as="targetPoint" />
            <mxPoint x="927.4285714285716" y="93.75" as="sourcePoint" />
            <Array as="points">
              <mxPoint x="1130" y="200" />
              <mxPoint x="-38" y="200" />
            </Array>
          </mxGeometry>
        </mxCell>
        <mxCell id="Zp9bopaUCP8zhnC8v-5o-37" style="edgeStyle=orthogonalEdgeStyle;rounded=0;orthogonalLoop=1;jettySize=auto;html=1;entryX=0;entryY=0.5;entryDx=0;entryDy=0;flowAnimation=1;dashed=1;exitX=1;exitY=0.5;exitDx=0;exitDy=0;" parent="1" source="kJF5AU2SEee2FHh_53xt-1" target="Zp9bopaUCP8zhnC8v-5o-36" edge="1">
          <mxGeometry relative="1" as="geometry">
            <mxPoint x="984.9500000000007" y="73.75" as="sourcePoint" />
          </mxGeometry>
        </mxCell>
        <mxCell id="Zp9bopaUCP8zhnC8v-5o-24" value="" style="shape=image;verticalLabelPosition=bottom;labelBackgroundColor=default;verticalAlign=top;aspect=fixed;imageAspect=0;image=https://upload.wikimedia.org/wikipedia/commons/0/05/Ansible_Logo.png;" parent="1" vertex="1">
          <mxGeometry x="-353.6" y="137.5" width="80" height="80" as="geometry" />
        </mxCell>
        <mxCell id="Zp9bopaUCP8zhnC8v-5o-27" style="edgeStyle=orthogonalEdgeStyle;rounded=0;orthogonalLoop=1;jettySize=auto;html=1;entryX=0;entryY=0.5;entryDx=0;entryDy=0;flowAnimation=1;dashed=1;" parent="1" source="Zp9bopaUCP8zhnC8v-5o-25" target="Zp9bopaUCP8zhnC8v-5o-28" edge="1">
          <mxGeometry relative="1" as="geometry">
            <mxPoint x="160" y="445" as="targetPoint" />
          </mxGeometry>
        </mxCell>
        <mxCell id="Zp9bopaUCP8zhnC8v-5o-25" value="" style="shape=image;verticalLabelPosition=bottom;labelBackgroundColor=default;verticalAlign=top;aspect=fixed;imageAspect=0;image=https://www.opsmx.com/wp-content/uploads/2022/07/Argo-1-e1630327305635-1.png;" parent="1" vertex="1">
          <mxGeometry x="-105.59000000000002" y="400" width="135.59" height="90" as="geometry" />
        </mxCell>
        <mxCell id="Zp9bopaUCP8zhnC8v-5o-30" style="edgeStyle=orthogonalEdgeStyle;rounded=0;orthogonalLoop=1;jettySize=auto;html=1;flowAnimation=1;dashed=1;" parent="1" source="Zp9bopaUCP8zhnC8v-5o-28" target="Zp9bopaUCP8zhnC8v-5o-29" edge="1">
          <mxGeometry relative="1" as="geometry" />
        </mxCell>
        <mxCell id="Zp9bopaUCP8zhnC8v-5o-28" value="" style="shape=image;verticalLabelPosition=bottom;labelBackgroundColor=default;verticalAlign=top;aspect=fixed;imageAspect=0;image=https://juststickers.in/wp-content/uploads/2018/11/kubernetes-wordmark.png;" parent="1" vertex="1">
          <mxGeometry x="150" y="390" width="110" height="110" as="geometry" />
        </mxCell>
        <mxCell id="Zp9bopaUCP8zhnC8v-5o-32" style="edgeStyle=orthogonalEdgeStyle;rounded=0;orthogonalLoop=1;jettySize=auto;html=1;entryX=0;entryY=0.5;entryDx=0;entryDy=0;flowAnimation=1;dashed=1;" parent="1" source="Zp9bopaUCP8zhnC8v-5o-29" target="Zp9bopaUCP8zhnC8v-5o-31" edge="1">
          <mxGeometry relative="1" as="geometry" />
        </mxCell>
        <mxCell id="Zp9bopaUCP8zhnC8v-5o-29" value="" style="shape=image;verticalLabelPosition=bottom;labelBackgroundColor=default;verticalAlign=top;aspect=fixed;imageAspect=0;image=https://i.pinimg.com/originals/58/87/dd/5887ddf7f68aa57b38e35196f42150c7.png;" parent="1" vertex="1">
          <mxGeometry x="360" y="405" width="93.02" height="80" as="geometry" />
        </mxCell>
        <mxCell id="Zp9bopaUCP8zhnC8v-5o-47" style="edgeStyle=orthogonalEdgeStyle;rounded=0;orthogonalLoop=1;jettySize=auto;html=1;flowAnimation=1;dashed=1;" parent="1" source="Zp9bopaUCP8zhnC8v-5o-31" target="Zp9bopaUCP8zhnC8v-5o-46" edge="1">
          <mxGeometry relative="1" as="geometry" />
        </mxCell>
        <mxCell id="Zp9bopaUCP8zhnC8v-5o-31" value="" style="shape=image;verticalLabelPosition=bottom;labelBackgroundColor=default;verticalAlign=top;aspect=fixed;imageAspect=0;image=https://upload.wikimedia.org/wikipedia/commons/thumb/a/a1/Grafana_logo.svg/800px-Grafana_logo.svg.png;" parent="1" vertex="1">
          <mxGeometry x="582.5999999999999" y="400" width="88.02" height="90" as="geometry" />
        </mxCell>
        <mxCell id="Zp9bopaUCP8zhnC8v-5o-35" value="" style="shape=image;verticalLabelPosition=bottom;labelBackgroundColor=default;verticalAlign=top;aspect=fixed;imageAspect=0;image=https://static-00.iconduck.com/assets.00/aws-icon-2048x2048-ptyrjxdo.png;" parent="1" vertex="1">
          <mxGeometry x="-350" y="-36.25" width="85" height="85" as="geometry" />
        </mxCell>
        <mxCell id="Zp9bopaUCP8zhnC8v-5o-36" value="" style="shape=image;verticalLabelPosition=bottom;labelBackgroundColor=default;verticalAlign=top;aspect=fixed;imageAspect=0;image=https://logolook.net/wp-content/uploads/2022/12/GitHub-Logo.png;" parent="1" vertex="1">
          <mxGeometry x="1070" y="40" width="120" height="67.5" as="geometry" />
        </mxCell>
        <mxCell id="Zp9bopaUCP8zhnC8v-5o-46" value="" style="outlineConnect=0;fontColor=#232F3E;gradientColor=none;fillColor=#232F3D;strokeColor=none;dashed=0;verticalLabelPosition=bottom;verticalAlign=top;align=center;html=1;fontSize=12;fontStyle=0;aspect=fixed;pointerEvents=1;shape=mxgraph.aws4.user;" parent="1" vertex="1">
          <mxGeometry x="792" y="405" width="78" height="78" as="geometry" />
        </mxCell>
        <mxCell id="Zp9bopaUCP8zhnC8v-5o-48" value="DevSecOps CI/CD" style="text;html=1;align=center;verticalAlign=middle;whiteSpace=wrap;rounded=0;fontSize=42;" parent="1" vertex="1">
          <mxGeometry x="1021.3999999999999" y="230" width="217.2" height="80" as="geometry" />
        </mxCell>
        <mxCell id="Zp9bopaUCP8zhnC8v-5o-49" value="CI" style="text;html=1;align=center;verticalAlign=middle;whiteSpace=wrap;rounded=0;fontSize=50;" parent="1" vertex="1">
          <mxGeometry x="-210" y="74.99999999999999" width="60" height="30" as="geometry" />
        </mxCell>
        <mxCell id="Zp9bopaUCP8zhnC8v-5o-50" value="CD" style="text;html=1;align=center;verticalAlign=middle;whiteSpace=wrap;rounded=0;fontSize=50;" parent="1" vertex="1">
          <mxGeometry x="-199.99999999999997" y="410" width="60" height="30" as="geometry" />
        </mxCell>
        <mxCell id="Ye_nrfRPRzjRZ5T-cUN8-1" value="Docker tag Update on Manifests&amp;nbsp;" style="text;html=1;align=center;verticalAlign=middle;whiteSpace=wrap;rounded=0;strokeWidth=10;fontSize=20;" parent="1" vertex="1">
          <mxGeometry x="1000" y="120" width="60" height="30" as="geometry" />
        </mxCell>
        <mxCell id="Ye_nrfRPRzjRZ5T-cUN8-2" value="Static Code Analysis&amp;nbsp;" style="text;html=1;align=center;verticalAlign=middle;whiteSpace=wrap;rounded=0;fontSize=20;" parent="1" vertex="1">
          <mxGeometry x="30" y="108.75" width="60" height="30" as="geometry" />
        </mxCell>
        <mxCell id="Ye_nrfRPRzjRZ5T-cUN8-3" value="OWASP" style="text;html=1;align=center;verticalAlign=middle;whiteSpace=wrap;rounded=0;fontSize=20;" parent="1" vertex="1">
          <mxGeometry x="270" y="103.75" width="60" height="30" as="geometry" />
        </mxCell>
        <mxCell id="Ye_nrfRPRzjRZ5T-cUN8-4" value="Sync" style="text;html=1;align=center;verticalAlign=middle;whiteSpace=wrap;rounded=0;fontSize=20;" parent="1" vertex="1">
          <mxGeometry x="-40" y="203.44" width="60" height="30" as="geometry" />
        </mxCell>
        <mxCell id="yrw4BJJYyJAJMMiqZRWE-6" style="edgeStyle=orthogonalEdgeStyle;rounded=0;orthogonalLoop=1;jettySize=auto;html=1;entryX=0;entryY=0.5;entryDx=0;entryDy=0;flowAnimation=1;dashed=1;" parent="1" source="yrw4BJJYyJAJMMiqZRWE-3" target="Zp9bopaUCP8zhnC8v-5o-15" edge="1">
          <mxGeometry relative="1" as="geometry" />
        </mxCell>
        <mxCell id="yrw4BJJYyJAJMMiqZRWE-3" value="" style="shape=image;verticalLabelPosition=bottom;labelBackgroundColor=default;verticalAlign=top;aspect=fixed;imageAspect=0;image=https://static-00.iconduck.com/assets.00/trivy-icon-1248x2048-jvb9x51r.png;" parent="1" vertex="1">
          <mxGeometry x="453.02" y="31" width="52.08" height="85.5" as="geometry" />
        </mxCell>
        <mxCell id="kJF5AU2SEee2FHh_53xt-2" value="" style="rounded=1;whiteSpace=wrap;html=1;fillColor=#dae8fc;strokeColor=#6c8ebf;fontStyle=1;fontSize=15;" vertex="1" parent="1">
          <mxGeometry x="-375" y="644.99" width="1760" height="633.75" as="geometry" />
        </mxCell>
        <mxCell id="kJF5AU2SEee2FHh_53xt-1" value="" style="shape=image;verticalLabelPosition=bottom;labelBackgroundColor=default;verticalAlign=top;aspect=fixed;imageAspect=0;image=https://images.squarespace-cdn.com/content/v1/5979393017bffc7e4595795b/1612198269255-W6DPDQBCHH716OYRSJWJ/docker-hub-logo.png;" vertex="1" parent="1">
          <mxGeometry x="880" y="33.75" width="100.39" height="80" as="geometry" />
        </mxCell>
        <mxCell id="kJF5AU2SEee2FHh_53xt-3" value="" style="outlineConnect=0;fontColor=#232F3E;gradientColor=none;fillColor=#232F3D;strokeColor=none;dashed=0;verticalLabelPosition=bottom;verticalAlign=top;align=center;html=1;fontSize=15;fontStyle=1;aspect=fixed;pointerEvents=1;shape=mxgraph.aws4.user;" vertex="1" parent="1">
          <mxGeometry x="-550" y="917.87" width="78" height="78" as="geometry" />
        </mxCell>
        <mxCell id="kJF5AU2SEee2FHh_53xt-7" style="edgeStyle=orthogonalEdgeStyle;rounded=0;orthogonalLoop=1;jettySize=auto;html=1;entryX=0;entryY=0.5;entryDx=0;entryDy=0;fontStyle=1;fontSize=15;" edge="1" parent="1" source="kJF5AU2SEee2FHh_53xt-4" target="kJF5AU2SEee2FHh_53xt-6">
          <mxGeometry relative="1" as="geometry" />
        </mxCell>
        <mxCell id="kJF5AU2SEee2FHh_53xt-4" value="" style="outlineConnect=0;dashed=0;verticalLabelPosition=bottom;verticalAlign=top;align=center;html=1;shape=mxgraph.aws3.application_load_balancer;fillColor=#F58534;gradientColor=none;fontStyle=1;fontSize=15;" vertex="1" parent="1">
          <mxGeometry x="-407" y="920.87" width="69" height="72" as="geometry" />
        </mxCell>
        <mxCell id="kJF5AU2SEee2FHh_53xt-5" style="edgeStyle=orthogonalEdgeStyle;rounded=0;orthogonalLoop=1;jettySize=auto;html=1;entryX=0;entryY=0.5;entryDx=0;entryDy=0;entryPerimeter=0;fontStyle=1;fontSize=15;" edge="1" parent="1" source="kJF5AU2SEee2FHh_53xt-3" target="kJF5AU2SEee2FHh_53xt-4">
          <mxGeometry relative="1" as="geometry" />
        </mxCell>
        <mxCell id="kJF5AU2SEee2FHh_53xt-11" style="edgeStyle=orthogonalEdgeStyle;rounded=0;orthogonalLoop=1;jettySize=auto;html=1;entryX=0;entryY=0.5;entryDx=0;entryDy=0;fontStyle=1;fontSize=15;" edge="1" parent="1" source="kJF5AU2SEee2FHh_53xt-6" target="kJF5AU2SEee2FHh_53xt-10">
          <mxGeometry relative="1" as="geometry" />
        </mxCell>
        <mxCell id="kJF5AU2SEee2FHh_53xt-26" style="edgeStyle=orthogonalEdgeStyle;rounded=0;orthogonalLoop=1;jettySize=auto;html=1;entryX=0;entryY=0.5;entryDx=0;entryDy=0;fontStyle=1;fontSize=15;" edge="1" parent="1" source="kJF5AU2SEee2FHh_53xt-6" target="kJF5AU2SEee2FHh_53xt-25">
          <mxGeometry relative="1" as="geometry" />
        </mxCell>
        <mxCell id="kJF5AU2SEee2FHh_53xt-30" style="edgeStyle=orthogonalEdgeStyle;rounded=0;orthogonalLoop=1;jettySize=auto;html=1;entryX=0;entryY=0.5;entryDx=0;entryDy=0;fontStyle=1;fontSize=15;" edge="1" parent="1" source="kJF5AU2SEee2FHh_53xt-6" target="kJF5AU2SEee2FHh_53xt-28">
          <mxGeometry relative="1" as="geometry" />
        </mxCell>
        <mxCell id="kJF5AU2SEee2FHh_53xt-6" value="" style="shape=image;verticalLabelPosition=bottom;labelBackgroundColor=default;verticalAlign=top;aspect=fixed;imageAspect=0;image=https://miro.medium.com/v2/resize:fit:672/1*IBh4DjOb02cT1TPW5GFZDg.png;fontStyle=1;fontSize=15;" vertex="1" parent="1">
          <mxGeometry x="-278.78" y="916.87" width="103.78" height="80" as="geometry" />
        </mxCell>
        <mxCell id="kJF5AU2SEee2FHh_53xt-18" style="edgeStyle=orthogonalEdgeStyle;rounded=0;orthogonalLoop=1;jettySize=auto;html=1;entryX=0;entryY=0.5;entryDx=0;entryDy=0;fontStyle=1;fontSize=15;" edge="1" parent="1" source="kJF5AU2SEee2FHh_53xt-10" target="kJF5AU2SEee2FHh_53xt-17">
          <mxGeometry relative="1" as="geometry" />
        </mxCell>
        <mxCell id="kJF5AU2SEee2FHh_53xt-22" style="edgeStyle=orthogonalEdgeStyle;rounded=0;orthogonalLoop=1;jettySize=auto;html=1;entryX=0;entryY=0.5;entryDx=0;entryDy=0;fontStyle=1;fontSize=15;" edge="1" parent="1" source="kJF5AU2SEee2FHh_53xt-10" target="kJF5AU2SEee2FHh_53xt-20">
          <mxGeometry relative="1" as="geometry" />
        </mxCell>
        <mxCell id="kJF5AU2SEee2FHh_53xt-10" value="" style="shape=image;verticalLabelPosition=bottom;labelBackgroundColor=default;verticalAlign=top;aspect=fixed;imageAspect=0;image=https://miro.medium.com/v2/resize:fit:546/1*ZlQffqUWhkxqbKI--ZUitg.png;fontStyle=1;fontSize=15;" vertex="1" parent="1">
          <mxGeometry x="-100" y="728" width="85.31" height="70" as="geometry" />
        </mxCell>
        <mxCell id="kJF5AU2SEee2FHh_53xt-14" value="" style="shape=image;verticalLabelPosition=bottom;labelBackgroundColor=default;verticalAlign=top;aspect=fixed;imageAspect=0;image=https://juststickers.in/wp-content/uploads/2018/11/kubernetes-wordmark.png;fontStyle=1;fontSize=15;" vertex="1" parent="1">
          <mxGeometry x="-343.6" y="650" width="60" height="60" as="geometry" />
        </mxCell>
        <mxCell id="kJF5AU2SEee2FHh_53xt-50" style="edgeStyle=orthogonalEdgeStyle;rounded=0;orthogonalLoop=1;jettySize=auto;html=1;entryX=0;entryY=0.5;entryDx=0;entryDy=0;fontStyle=1;fontSize=15;" edge="1" parent="1" source="kJF5AU2SEee2FHh_53xt-17" target="kJF5AU2SEee2FHh_53xt-42">
          <mxGeometry relative="1" as="geometry" />
        </mxCell>
        <mxCell id="kJF5AU2SEee2FHh_53xt-17" value="Frontend Pod" style="rounded=1;whiteSpace=wrap;html=1;fontStyle=1;fontSize=15;" vertex="1" parent="1">
          <mxGeometry x="52.6" y="688" width="120" height="60" as="geometry" />
        </mxCell>
        <mxCell id="kJF5AU2SEee2FHh_53xt-51" style="edgeStyle=orthogonalEdgeStyle;rounded=0;orthogonalLoop=1;jettySize=auto;html=1;entryX=0;entryY=0.5;entryDx=0;entryDy=0;fontStyle=1;fontSize=15;" edge="1" parent="1" source="kJF5AU2SEee2FHh_53xt-20" target="kJF5AU2SEee2FHh_53xt-42">
          <mxGeometry relative="1" as="geometry" />
        </mxCell>
        <mxCell id="kJF5AU2SEee2FHh_53xt-20" value="Frontend Pod" style="rounded=1;whiteSpace=wrap;html=1;fontStyle=1;fontSize=15;" vertex="1" parent="1">
          <mxGeometry x="52.6" y="768" width="120" height="60" as="geometry" />
        </mxCell>
        <mxCell id="kJF5AU2SEee2FHh_53xt-24" value="Kart Service" style="text;html=1;align=center;verticalAlign=middle;whiteSpace=wrap;rounded=0;fontStyle=1;fontSize=15;" vertex="1" parent="1">
          <mxGeometry x="-87.33999999999997" y="798" width="60" height="30" as="geometry" />
        </mxCell>
        <mxCell id="kJF5AU2SEee2FHh_53xt-37" style="edgeStyle=orthogonalEdgeStyle;rounded=0;orthogonalLoop=1;jettySize=auto;html=1;entryX=0;entryY=0.5;entryDx=0;entryDy=0;fontStyle=1;fontSize=15;" edge="1" parent="1" source="kJF5AU2SEee2FHh_53xt-25" target="kJF5AU2SEee2FHh_53xt-31">
          <mxGeometry relative="1" as="geometry" />
        </mxCell>
        <mxCell id="kJF5AU2SEee2FHh_53xt-38" style="edgeStyle=orthogonalEdgeStyle;rounded=0;orthogonalLoop=1;jettySize=auto;html=1;entryX=0;entryY=0.5;entryDx=0;entryDy=0;fontStyle=1;fontSize=15;" edge="1" parent="1" source="kJF5AU2SEee2FHh_53xt-25" target="kJF5AU2SEee2FHh_53xt-32">
          <mxGeometry relative="1" as="geometry" />
        </mxCell>
        <mxCell id="kJF5AU2SEee2FHh_53xt-25" value="" style="shape=image;verticalLabelPosition=bottom;labelBackgroundColor=default;verticalAlign=top;aspect=fixed;imageAspect=0;image=https://miro.medium.com/v2/resize:fit:546/1*ZlQffqUWhkxqbKI--ZUitg.png;fontStyle=1;fontSize=15;" vertex="1" parent="1">
          <mxGeometry x="-100" y="922.87" width="85.31" height="70" as="geometry" />
        </mxCell>
        <mxCell id="kJF5AU2SEee2FHh_53xt-27" value="Order Service" style="text;html=1;align=center;verticalAlign=middle;whiteSpace=wrap;rounded=0;fontStyle=1;fontSize=15;" vertex="1" parent="1">
          <mxGeometry x="-87.33999999999997" y="994" width="60" height="30" as="geometry" />
        </mxCell>
        <mxCell id="kJF5AU2SEee2FHh_53xt-35" style="edgeStyle=orthogonalEdgeStyle;rounded=0;orthogonalLoop=1;jettySize=auto;html=1;entryX=0;entryY=0.5;entryDx=0;entryDy=0;fontStyle=1;fontSize=15;" edge="1" parent="1" source="kJF5AU2SEee2FHh_53xt-28" target="kJF5AU2SEee2FHh_53xt-33">
          <mxGeometry relative="1" as="geometry" />
        </mxCell>
        <mxCell id="kJF5AU2SEee2FHh_53xt-36" style="edgeStyle=orthogonalEdgeStyle;rounded=0;orthogonalLoop=1;jettySize=auto;html=1;entryX=0;entryY=0.5;entryDx=0;entryDy=0;fontStyle=1;fontSize=15;" edge="1" parent="1" source="kJF5AU2SEee2FHh_53xt-28" target="kJF5AU2SEee2FHh_53xt-34">
          <mxGeometry relative="1" as="geometry" />
        </mxCell>
        <mxCell id="kJF5AU2SEee2FHh_53xt-28" value="" style="shape=image;verticalLabelPosition=bottom;labelBackgroundColor=default;verticalAlign=top;aspect=fixed;imageAspect=0;image=https://miro.medium.com/v2/resize:fit:546/1*ZlQffqUWhkxqbKI--ZUitg.png;fontStyle=1;fontSize=15;" vertex="1" parent="1">
          <mxGeometry x="-100" y="1120" width="85.31" height="70" as="geometry" />
        </mxCell>
        <mxCell id="kJF5AU2SEee2FHh_53xt-29" value="Payment Service" style="text;html=1;align=center;verticalAlign=middle;whiteSpace=wrap;rounded=0;fontStyle=1;fontSize=15;" vertex="1" parent="1">
          <mxGeometry x="-87.33999999999997" y="1191" width="60" height="30" as="geometry" />
        </mxCell>
        <mxCell id="kJF5AU2SEee2FHh_53xt-48" style="edgeStyle=orthogonalEdgeStyle;rounded=0;orthogonalLoop=1;jettySize=auto;html=1;entryX=0;entryY=0.5;entryDx=0;entryDy=0;fontStyle=1;fontSize=15;" edge="1" parent="1" source="kJF5AU2SEee2FHh_53xt-31" target="kJF5AU2SEee2FHh_53xt-40">
          <mxGeometry relative="1" as="geometry" />
        </mxCell>
        <mxCell id="kJF5AU2SEee2FHh_53xt-31" value="Frontend Pod" style="rounded=1;whiteSpace=wrap;html=1;fontStyle=1;fontSize=15;" vertex="1" parent="1">
          <mxGeometry x="52.6" y="890" width="120" height="60" as="geometry" />
        </mxCell>
        <mxCell id="kJF5AU2SEee2FHh_53xt-49" style="edgeStyle=orthogonalEdgeStyle;rounded=0;orthogonalLoop=1;jettySize=auto;html=1;entryX=0;entryY=0.5;entryDx=0;entryDy=0;fontStyle=1;fontSize=15;" edge="1" parent="1" source="kJF5AU2SEee2FHh_53xt-32" target="kJF5AU2SEee2FHh_53xt-40">
          <mxGeometry relative="1" as="geometry" />
        </mxCell>
        <mxCell id="kJF5AU2SEee2FHh_53xt-32" value="Frontend Pod" style="rounded=1;whiteSpace=wrap;html=1;fontStyle=1;fontSize=15;" vertex="1" parent="1">
          <mxGeometry x="52.599999999999994" y="970" width="120" height="60" as="geometry" />
        </mxCell>
        <mxCell id="kJF5AU2SEee2FHh_53xt-46" style="edgeStyle=orthogonalEdgeStyle;rounded=0;orthogonalLoop=1;jettySize=auto;html=1;entryX=0;entryY=0.5;entryDx=0;entryDy=0;fontStyle=1;fontSize=15;" edge="1" parent="1" source="kJF5AU2SEee2FHh_53xt-33" target="kJF5AU2SEee2FHh_53xt-44">
          <mxGeometry relative="1" as="geometry" />
        </mxCell>
        <mxCell id="kJF5AU2SEee2FHh_53xt-33" value="Frontend Pod" style="rounded=1;whiteSpace=wrap;html=1;fontStyle=1;fontSize=15;" vertex="1" parent="1">
          <mxGeometry x="52.599999999999994" y="1090" width="120" height="60" as="geometry" />
        </mxCell>
        <mxCell id="kJF5AU2SEee2FHh_53xt-47" style="edgeStyle=orthogonalEdgeStyle;rounded=0;orthogonalLoop=1;jettySize=auto;html=1;fontStyle=1;fontSize=15;" edge="1" parent="1" source="kJF5AU2SEee2FHh_53xt-34" target="kJF5AU2SEee2FHh_53xt-44">
          <mxGeometry relative="1" as="geometry" />
        </mxCell>
        <mxCell id="kJF5AU2SEee2FHh_53xt-34" value="Frontend Pod" style="rounded=1;whiteSpace=wrap;html=1;fontStyle=1;fontSize=15;" vertex="1" parent="1">
          <mxGeometry x="52.599999999999994" y="1170" width="120" height="60" as="geometry" />
        </mxCell>
        <mxCell id="kJF5AU2SEee2FHh_53xt-57" style="edgeStyle=orthogonalEdgeStyle;rounded=0;orthogonalLoop=1;jettySize=auto;html=1;entryX=0;entryY=0.5;entryDx=0;entryDy=0;fontStyle=1;fontSize=15;" edge="1" parent="1" source="kJF5AU2SEee2FHh_53xt-40" target="kJF5AU2SEee2FHh_53xt-54">
          <mxGeometry relative="1" as="geometry" />
        </mxCell>
        <mxCell id="kJF5AU2SEee2FHh_53xt-40" value="" style="shape=image;verticalLabelPosition=bottom;labelBackgroundColor=default;verticalAlign=top;aspect=fixed;imageAspect=0;image=https://miro.medium.com/v2/resize:fit:546/1*ZlQffqUWhkxqbKI--ZUitg.png;fontStyle=1;fontSize=15;" vertex="1" parent="1">
          <mxGeometry x="330.36" y="922.87" width="85.31" height="70" as="geometry" />
        </mxCell>
        <mxCell id="kJF5AU2SEee2FHh_53xt-41" value="ClusterIP" style="text;html=1;align=center;verticalAlign=middle;whiteSpace=wrap;rounded=0;fontStyle=1;fontSize=15;" vertex="1" parent="1">
          <mxGeometry x="343.38" y="996" width="60" height="30" as="geometry" />
        </mxCell>
        <mxCell id="kJF5AU2SEee2FHh_53xt-53" style="edgeStyle=orthogonalEdgeStyle;rounded=0;orthogonalLoop=1;jettySize=auto;html=1;entryX=0;entryY=0.5;entryDx=0;entryDy=0;fontStyle=1;fontSize=15;" edge="1" parent="1" source="kJF5AU2SEee2FHh_53xt-42" target="kJF5AU2SEee2FHh_53xt-52">
          <mxGeometry relative="1" as="geometry" />
        </mxCell>
        <mxCell id="kJF5AU2SEee2FHh_53xt-42" value="" style="shape=image;verticalLabelPosition=bottom;labelBackgroundColor=default;verticalAlign=top;aspect=fixed;imageAspect=0;image=https://miro.medium.com/v2/resize:fit:546/1*ZlQffqUWhkxqbKI--ZUitg.png;fontStyle=1;fontSize=15;" vertex="1" parent="1">
          <mxGeometry x="330" y="721.4300000000001" width="85.31" height="70" as="geometry" />
        </mxCell>
        <mxCell id="kJF5AU2SEee2FHh_53xt-43" value="ClusterIP" style="text;html=1;align=center;verticalAlign=middle;whiteSpace=wrap;rounded=0;fontStyle=1;fontSize=15;" vertex="1" parent="1">
          <mxGeometry x="343.02" y="788.56" width="60" height="30" as="geometry" />
        </mxCell>
        <mxCell id="kJF5AU2SEee2FHh_53xt-56" style="edgeStyle=orthogonalEdgeStyle;rounded=0;orthogonalLoop=1;jettySize=auto;html=1;entryX=0;entryY=0.5;entryDx=0;entryDy=0;fontStyle=1;fontSize=15;" edge="1" parent="1" source="kJF5AU2SEee2FHh_53xt-44" target="kJF5AU2SEee2FHh_53xt-55">
          <mxGeometry relative="1" as="geometry" />
        </mxCell>
        <mxCell id="kJF5AU2SEee2FHh_53xt-44" value="" style="shape=image;verticalLabelPosition=bottom;labelBackgroundColor=default;verticalAlign=top;aspect=fixed;imageAspect=0;image=https://miro.medium.com/v2/resize:fit:546/1*ZlQffqUWhkxqbKI--ZUitg.png;fontStyle=1;fontSize=15;" vertex="1" parent="1">
          <mxGeometry x="330" y="1121.43" width="85.31" height="70" as="geometry" />
        </mxCell>
        <mxCell id="kJF5AU2SEee2FHh_53xt-45" value="ClusterIP" style="text;html=1;align=center;verticalAlign=middle;whiteSpace=wrap;rounded=0;fontStyle=1;fontSize=15;" vertex="1" parent="1">
          <mxGeometry x="343.02" y="1176.56" width="60" height="30" as="geometry" />
        </mxCell>
        <mxCell id="kJF5AU2SEee2FHh_53xt-65" style="edgeStyle=orthogonalEdgeStyle;rounded=0;orthogonalLoop=1;jettySize=auto;html=1;entryX=0;entryY=0.5;entryDx=0;entryDy=0;fontStyle=1;fontSize=15;" edge="1" parent="1" source="kJF5AU2SEee2FHh_53xt-52" target="kJF5AU2SEee2FHh_53xt-58">
          <mxGeometry relative="1" as="geometry" />
        </mxCell>
        <mxCell id="kJF5AU2SEee2FHh_53xt-52" value="Backend Pod" style="rounded=1;whiteSpace=wrap;html=1;fontStyle=1;fontSize=15;" vertex="1" parent="1">
          <mxGeometry x="480" y="726.43" width="120" height="60" as="geometry" />
        </mxCell>
        <mxCell id="kJF5AU2SEee2FHh_53xt-66" style="edgeStyle=orthogonalEdgeStyle;rounded=0;orthogonalLoop=1;jettySize=auto;html=1;entryX=0;entryY=0.5;entryDx=0;entryDy=0;fontStyle=1;fontSize=15;" edge="1" parent="1" source="kJF5AU2SEee2FHh_53xt-54" target="kJF5AU2SEee2FHh_53xt-61">
          <mxGeometry relative="1" as="geometry" />
        </mxCell>
        <mxCell id="kJF5AU2SEee2FHh_53xt-54" value="Backend Pod" style="rounded=1;whiteSpace=wrap;html=1;fontStyle=1;fontSize=15;" vertex="1" parent="1">
          <mxGeometry x="480" y="928.8699999999999" width="120" height="60" as="geometry" />
        </mxCell>
        <mxCell id="kJF5AU2SEee2FHh_53xt-67" style="edgeStyle=orthogonalEdgeStyle;rounded=0;orthogonalLoop=1;jettySize=auto;html=1;entryX=0;entryY=0.5;entryDx=0;entryDy=0;fontStyle=1;fontSize=15;" edge="1" parent="1" source="kJF5AU2SEee2FHh_53xt-55" target="kJF5AU2SEee2FHh_53xt-63">
          <mxGeometry relative="1" as="geometry" />
        </mxCell>
        <mxCell id="kJF5AU2SEee2FHh_53xt-55" value="Backend Pod" style="rounded=1;whiteSpace=wrap;html=1;fontStyle=1;fontSize=15;" vertex="1" parent="1">
          <mxGeometry x="483" y="1126.4299999999998" width="120" height="60" as="geometry" />
        </mxCell>
        <mxCell id="kJF5AU2SEee2FHh_53xt-69" style="edgeStyle=orthogonalEdgeStyle;rounded=0;orthogonalLoop=1;jettySize=auto;html=1;fontStyle=1;fontSize=15;" edge="1" parent="1" source="kJF5AU2SEee2FHh_53xt-58" target="kJF5AU2SEee2FHh_53xt-68">
          <mxGeometry relative="1" as="geometry" />
        </mxCell>
        <mxCell id="kJF5AU2SEee2FHh_53xt-58" value="" style="shape=image;verticalLabelPosition=bottom;labelBackgroundColor=default;verticalAlign=top;aspect=fixed;imageAspect=0;image=https://miro.medium.com/v2/resize:fit:546/1*ZlQffqUWhkxqbKI--ZUitg.png;fontStyle=1;fontSize=15;" vertex="1" parent="1">
          <mxGeometry x="698.39" y="722.4300000000001" width="85.31" height="70" as="geometry" />
        </mxCell>
        <mxCell id="kJF5AU2SEee2FHh_53xt-60" value="ClusterIP" style="text;html=1;align=center;verticalAlign=middle;whiteSpace=wrap;rounded=0;fontStyle=1;fontSize=15;" vertex="1" parent="1">
          <mxGeometry x="711.04" y="784.56" width="60" height="30" as="geometry" />
        </mxCell>
        <mxCell id="kJF5AU2SEee2FHh_53xt-71" style="edgeStyle=orthogonalEdgeStyle;rounded=0;orthogonalLoop=1;jettySize=auto;html=1;entryX=0;entryY=0.5;entryDx=0;entryDy=0;fontStyle=1;fontSize=15;" edge="1" parent="1" source="kJF5AU2SEee2FHh_53xt-61" target="kJF5AU2SEee2FHh_53xt-70">
          <mxGeometry relative="1" as="geometry" />
        </mxCell>
        <mxCell id="kJF5AU2SEee2FHh_53xt-61" value="" style="shape=image;verticalLabelPosition=bottom;labelBackgroundColor=default;verticalAlign=top;aspect=fixed;imageAspect=0;image=https://miro.medium.com/v2/resize:fit:546/1*ZlQffqUWhkxqbKI--ZUitg.png;fontStyle=1;fontSize=15;" vertex="1" parent="1">
          <mxGeometry x="697.4" y="924" width="85.31" height="70" as="geometry" />
        </mxCell>
        <mxCell id="kJF5AU2SEee2FHh_53xt-62" value="ClusterIP" style="text;html=1;align=center;verticalAlign=middle;whiteSpace=wrap;rounded=0;fontStyle=1;fontSize=15;" vertex="1" parent="1">
          <mxGeometry x="710.06" y="991" width="60" height="30" as="geometry" />
        </mxCell>
        <mxCell id="kJF5AU2SEee2FHh_53xt-73" style="edgeStyle=orthogonalEdgeStyle;rounded=0;orthogonalLoop=1;jettySize=auto;html=1;entryX=0;entryY=0.5;entryDx=0;entryDy=0;fontStyle=1;fontSize=15;" edge="1" parent="1" source="kJF5AU2SEee2FHh_53xt-63" target="kJF5AU2SEee2FHh_53xt-72">
          <mxGeometry relative="1" as="geometry" />
        </mxCell>
        <mxCell id="kJF5AU2SEee2FHh_53xt-63" value="" style="shape=image;verticalLabelPosition=bottom;labelBackgroundColor=default;verticalAlign=top;aspect=fixed;imageAspect=0;image=https://miro.medium.com/v2/resize:fit:546/1*ZlQffqUWhkxqbKI--ZUitg.png;fontStyle=1;fontSize=15;" vertex="1" parent="1">
          <mxGeometry x="698.4" y="1121.43" width="85.31" height="70" as="geometry" />
        </mxCell>
        <mxCell id="kJF5AU2SEee2FHh_53xt-64" value="ClusterIP" style="text;html=1;align=center;verticalAlign=middle;whiteSpace=wrap;rounded=0;fontStyle=1;fontSize=15;" vertex="1" parent="1">
          <mxGeometry x="711.06" y="1172.4299999999998" width="60" height="30" as="geometry" />
        </mxCell>
        <mxCell id="kJF5AU2SEee2FHh_53xt-68" value="DataBase pod" style="rounded=1;whiteSpace=wrap;html=1;fontStyle=1;fontSize=15;" vertex="1" parent="1">
          <mxGeometry x="890" y="727.4300000000001" width="120" height="60" as="geometry" />
        </mxCell>
        <mxCell id="kJF5AU2SEee2FHh_53xt-70" value="DataBase pod" style="rounded=1;whiteSpace=wrap;html=1;fontStyle=1;fontSize=15;" vertex="1" parent="1">
          <mxGeometry x="890" y="929" width="120" height="60" as="geometry" />
        </mxCell>
        <mxCell id="kJF5AU2SEee2FHh_53xt-72" value="DataBase pod" style="rounded=1;whiteSpace=wrap;html=1;fontStyle=1;fontSize=15;" vertex="1" parent="1">
          <mxGeometry x="890" y="1126.43" width="120" height="60" as="geometry" />
        </mxCell>
        <mxCell id="kJF5AU2SEee2FHh_53xt-74" value="/kart" style="text;html=1;align=center;verticalAlign=middle;whiteSpace=wrap;rounded=0;fontStyle=1;fontSize=15;" vertex="1" parent="1">
          <mxGeometry x="-165.59" y="728" width="60" height="30" as="geometry" />
        </mxCell>
        <mxCell id="kJF5AU2SEee2FHh_53xt-75" value="/order" style="text;html=1;align=center;verticalAlign=middle;whiteSpace=wrap;rounded=0;fontStyle=1;fontSize=15;" vertex="1" parent="1">
          <mxGeometry x="-140" y="898.87" width="60" height="30" as="geometry" />
        </mxCell>
        <mxCell id="kJF5AU2SEee2FHh_53xt-76" value="/payment" style="text;html=1;align=center;verticalAlign=middle;whiteSpace=wrap;rounded=0;fontStyle=1;fontSize=15;" vertex="1" parent="1">
          <mxGeometry x="-165.59" y="1161" width="60" height="30" as="geometry" />
        </mxCell>
        <mxCell id="kJF5AU2SEee2FHh_53xt-77" value="shopping.com" style="text;html=1;align=center;verticalAlign=middle;whiteSpace=wrap;rounded=0;fontStyle=1;fontSize=15;" vertex="1" parent="1">
          <mxGeometry x="-398" y="996.87" width="60" height="30" as="geometry" />
        </mxCell>
        <mxCell id="kJF5AU2SEee2FHh_53xt-78" value="Ingress" style="text;html=1;align=center;verticalAlign=middle;whiteSpace=wrap;rounded=0;fontStyle=1;fontSize=15;" vertex="1" parent="1">
          <mxGeometry x="-259" y="1000" width="60" height="30" as="geometry" />
        </mxCell>
      </root>
    </mxGraphModel>
  </diagram>
</mxfile>
